<?xml version="1.0" encoding="UTF-8"?>
<!-- Generator: Adobe Illustrator 21.0.2, SVG Export Plug-In . SVG Version: 6.00 Build 0)  -->
<svg version="1.1" id="Layer_1" xmlns="http://www.w3.org/2000/svg" xmlns:xlink="http://www.w3.org/1999/xlink" x="0px" y="0px" viewBox="0 0 99 97.9" style="enable-background:new 0 0 99 97.9;" xml:space="preserve">
<style type="text/css">
	.st0{fill:#FFFFFF;}
	.st1{fill:#B0B2B5;}
</style>
<path class="st0" d="M49,2.9c25.7,0,46.5,20.6,46.5,46s-20.8,46-46.5,46S2.5,74.3,2.5,48.9S23.3,2.9,49,2.9z"/>
<g>
	<g>
		<path class="st1" d="M49.1,46.9h0.8c4.5,0,8.2-3.7,8.2-8.2V32c0-4.5-3.7-8.2-8.2-8.2h-0.8c-4.5,0-8.2,3.7-8.2,8.2v6.7    C40.9,43.2,44.5,46.9,49.1,46.9z"/>
	</g>
	<path class="st1" d="M68.3,66.9c0,4-3.3,7.3-7.3,7.3H38c-4,0-7.3-3.3-7.3-7.3v-6.2c0-4,3.3-7.3,7.3-7.3h23c4,0,7.3,3.3,7.3,7.3   V66.9z"/>
</g>
</svg>